<svg width="63" height="64" viewBox="0 0 63 64" fill="none" xmlns="http://www.w3.org/2000/svg">
<g clip-path="url(#clip0)">
<path d="M31.5 4L44.5 12V24.5L31.5 17.5L18.5 24.5V12L31.5 4Z" fill="#0097A7"/>
<path d="M3.78211 52.6451L4.12697 37.3847L14.918 31.0757L15.4364 45.8314L28.0408 53.521L17.2498 59.83L3.78211 52.6451Z" fill="#0097A7"/>
<path d="M59.2608 52.5979L45.7748 59.7483L35 53.4117L47.624 45.7543L48.1801 31L58.955 37.3366L59.2608 52.5979Z" fill="#0097A7"/>
<path d="M31.5 21.5L44.5 29V43.5L31.5 51L18.5 44V29L31.5 21.5Z" fill="#0097A7"/>
<path d="M46.1777 63.6992C45.832 63.6992 45.4863 63.6098 45.1768 63.4306L30.499 54.9487C29.8808 54.5912 29.5 53.9311 29.5 53.2167C29.5 52.5024 29.8808 51.8427 30.5 51.4853L44.1836 43.5829V27.787C44.1836 27.0727 44.5645 26.4125 45.1836 26.0551C45.8018 25.6982 46.5635 25.6977 47.1836 26.0546L61.8623 34.5258C62.4814 34.8832 62.8623 35.5434 62.8623 36.2582V53.2172C62.8623 53.9316 62.4814 54.5917 61.8623 54.9492L47.1777 63.4311C46.8682 63.6098 46.5234 63.6992 46.1777 63.6992ZM35.498 53.2177L46.1777 59.3896L58.8623 52.0629V37.413L48.1836 31.2504V44.7407C48.1836 45.5224 47.7354 46.1992 47.082 46.5283L35.498 53.2177Z" fill="#2A2F36"/>
<path d="M31.5 55.2172C31.1543 55.2172 30.8096 55.1279 30.5 54.9492C29.8808 54.5922 29.5 53.9316 29.5 53.2172V53.1743C29.5 52.4599 29.8808 51.7997 30.5 51.4423L45.1836 42.9604C45.8027 42.603 46.5645 42.603 47.1836 42.9604C47.8027 43.3173 48.1836 43.9775 48.1836 44.6923C48.1836 45.4365 47.7773 46.1074 47.1738 46.4662L47.1777 46.4726L32.5 54.9492C32.1904 55.1279 31.8457 55.2172 31.5 55.2172Z" fill="#2A2F36"/>
<path d="M31.5 55.2197C30.3955 55.2197 29.5 54.3271 29.5 53.2226C29.5 52.1181 30.3955 51.1987 31.5 51.1987C32.6045 51.1987 33.5 52.0698 33.5 53.1743V53.2172C33.5 54.3217 32.6045 55.2197 31.5 55.2197Z" fill="#2A2F36"/>
<path d="M46.1572 29.7661C45.8106 29.7661 45.4639 29.6757 45.1533 29.4956L31.4883 21.5615L17.7891 29.4247C17.1699 29.7812 16.4082 29.7792 15.7891 29.4199C15.1709 29.0615 14.791 28.4003 14.793 27.686L14.832 10.7387C14.834 10.0239 15.2168 9.3642 15.8359 9.00873L30.544 0.56635C31.165 0.210881 31.9268 0.212346 32.544 0.570745L47.21 9.08295C47.8281 9.44184 48.208 10.1039 48.2061 10.8188L48.1572 27.7719C48.1553 28.4863 47.7725 29.1455 47.1524 29.5009C46.8447 29.6777 46.501 29.7661 46.1572 29.7661ZM32.5889 17.5756L44.167 24.2978L44.2031 11.9628L31.5342 4.60981L18.8291 11.9028L18.8008 24.2319L30.5 17.5165C31.1738 17.1313 31.9795 17.1782 32.5889 17.5756Z" fill="#2A2F36"/>
<path d="M46.1201 29.7871C45.7735 29.7871 45.4268 29.6967 45.1162 29.517L30.4502 21.0048C29.8311 20.6455 29.4512 19.9824 29.4541 19.267C29.457 18.5512 29.8418 17.8916 30.4639 17.5371C31.1055 17.1728 31.8897 17.1874 32.5 17.5312L32.5029 17.5258L47.1611 26.0366C47.7813 26.3964 48.1611 27.0605 48.1572 27.7773C48.1533 28.4941 47.7656 29.1538 47.1426 29.5068L47.1055 29.5278C46.7998 29.7006 46.46 29.7871 46.1201 29.7871Z" fill="#2A2F36"/>
<path d="M47.1914 29.478L46.1201 27.787L45.1348 26.0463L45.1719 26.0253C46.126 25.4843 47.3359 25.8124 47.8877 26.7577C48.4385 27.7035 48.1299 28.915 47.1914 29.478Z" fill="#2A2F36"/>
<path d="M16.8213 63.6992C16.4756 63.6992 16.1308 63.6098 15.8213 63.4311L1.1377 54.9492C0.518554 54.5917 0.137695 53.9316 0.137695 53.2172V36.2582C0.137695 35.5434 0.518554 34.8832 1.1377 34.5258L15.8154 26.0546C16.4355 25.6977 17.1973 25.6982 17.8154 26.0551C18.4346 26.4125 18.8154 27.0727 18.8154 27.787V43.5829L32.5 51.4853C33.1191 51.8427 33.5 52.5024 33.5 53.2167C33.5 53.9311 33.1191 54.5917 32.501 54.9487L17.8223 63.4306C17.5127 63.6098 17.167 63.6992 16.8213 63.6992ZM4.1377 52.0629L16.8213 59.3896L27.502 53.2177L15.876 46.5043C15.2461 46.1674 14.8154 45.5038 14.8154 44.7407V31.2504L4.1377 37.413V52.0629V52.0629Z" fill="#2A2F36"/>
<path d="M31.4688 55.2065C31.1338 55.2065 30.7998 55.1225 30.5 54.9492L15.876 46.5043C15.2461 46.1674 14.8154 45.5038 14.8154 44.7407C14.8154 44.0258 15.1963 43.3417 15.8154 42.9843C16.4355 42.6284 17.1973 42.603 17.8154 42.9604L32.5 51.4423C33.1191 51.7997 33.5 52.4599 33.5 53.1743C33.5 53.8886 33.1191 54.5707 32.5 54.9277C32.1816 55.1118 31.8242 55.2065 31.4688 55.2065Z" fill="#2A2F36"/>
<path d="M31.5 55.1987C30.3955 55.1987 29.5 54.3271 29.5 53.2226V53.2172C29.5 52.1127 30.3955 51.1957 31.5 51.1957C32.6045 51.1957 33.5 52.0698 33.5 53.1743C33.5 54.2787 32.6045 55.1987 31.5 55.1987Z" fill="#2A2F36"/>
</g>
<defs>
<clipPath id="clip0">
<rect width="63" height="64" fill="white"/>
</clipPath>
</defs>
</svg>
